<svg xmlns="http://www.w3.org/2000/svg" width="540" height="150" fill="none" viewBox="0 0 540 150">
  <path fill="#000" d="M101.15 22.57h14l12.34 40.31 13.38-40.48h11.23l13.35 40.48 12.33-40.31h13.7l-20.33 60h-11.4l-13.44-38.99-13.43 39h-11.4l-20.33-60.01zM185.75 59.57v-.17c0-13 9.27-23.73 22.54-23.73 15.22 0 22.2 11.82 22.2 24.75 0 1-.09 2.21-.17 3.4h-31.73c1.28 5.87 5.36 8.93 11.15 8.93 4.33 0 7.48-1.36 11-4.68l7.4 6.55c-4.25 5.27-10.37 8.51-18.62 8.51-13.65 0-23.77-9.61-23.77-23.56zm32.15-3.83c-.77-5.78-4.17-9.7-9.61-9.7-5.44 0-8.85 3.83-9.87 9.7h19.48zM248.12 76.15v6h-12.93V20h12.93v23.07c3.15-4.26 7.49-7.4 14.21-7.4 10.63 0 20.75 8.33 20.75 23.56v.17c0 15.22-9.95 23.56-20.75 23.56a17.526 17.526 0 01-14.21-6.81zm22-16.75v-.17c0-7.57-5.1-12.59-11.14-12.59-6.04 0-10.98 5.02-10.98 12.59v.17c0 7.6 5 12.6 11 12.6s11.15-4.95 11.15-12.6h-.03zM283.57 73.43l7.74-9.27c5.36 4.42 11 7.23 17.78 7.23 5.35 0 8.59-2.13 8.59-5.61v-.17c0-3.32-2.05-5-12-7.57C293.69 55 286 51.66 286 39.84v-.18c0-10.8 8.68-17.94 20.84-17.94a34.459 34.459 0 0122.11 7.57l-6.8 9.86c-5.27-3.65-10.46-5.86-15.48-5.86S299 35.58 299 38.47v.17c0 3.92 2.56 5.19 12.85 7.83 12.07 3.15 18.88 7.48 18.88 17.86v.17c0 11.82-9 18.46-21.86 18.46a37.87 37.87 0 01-25.3-9.53zM336.38 69.18V47.57h-5.44v-11h5.44v-11.7h12.93v11.65H360v11h-10.69v19.53c0 3 1.27 4.42 4.17 4.42a13.19 13.19 0 006.38-1.61v10.37a19.05 19.05 0 01-10.21 2.64c-7.91 0-13.27-3.15-13.27-13.69zM361.72 59.57v-.17c0-13.1 10.55-23.73 24.75-23.73s24.58 10.46 24.58 23.56v.17c0 13.1-10.55 23.73-24.75 23.73s-24.58-10.47-24.58-23.56zm36.57 0v-.17c0-6.72-4.84-12.59-12-12.59-7.4 0-11.82 5.7-11.82 12.42v.17c0 6.72 4.85 12.58 12 12.58 7.4.02 11.82-5.69 11.82-12.41zM414.93 36.52h12.93v9.18c2.64-6.29 6.89-10.37 14.55-10v13.49h-.69c-8.59 0-13.86 5.19-13.86 16.08v16.84h-12.93V36.52zM447 36.52h12.92V43c3-3.83 6.89-7.31 13.44-7.31 6 0 10.46 2.63 12.85 7.23 4-4.68 8.76-7.23 15-7.23 9.62 0 15.4 5.78 15.4 16.75v29.67h-12.95V56.68c0-6.13-2.72-9.28-7.57-9.28s-7.82 3.15-7.82 9.28v25.43h-12.93V56.68c0-6.13-2.72-9.28-7.57-9.28s-7.83 3.15-7.83 9.28v25.43H447V36.52zM22.5 22.47h60v60h-60v-60z"/>
  <path fill="#fff" d="M29.98 71.14h22.5v3.75h-22.5v-3.75zM51.28 29.94l-3.35 13.13-3.83-13.13h-3.81l-3.84 13.13-3.34-13.13h-5.25l6.43 22.51h4.22l3.68-13.02 3.64 13.02h4.27l6.43-22.51h-5.25zM57.46 49.25l2.93-3.51a10.38 10.38 0 006.74 2.73c2 0 3.26-.8 3.26-2.13v-.06c0-1.25-.78-1.9-4.55-2.87-4.55-1.16-7.48-2.42-7.48-6.89v-.07c0-4.09 3.29-6.81 7.9-6.81a13.05 13.05 0 018.38 2.88l-2.58 3.74A10.56 10.56 0 0066.19 34c-1.9 0-2.9.87-2.9 2v.06c0 1.48 1 2 4.87 3 4.58 1.19 7.16 2.84 7.16 6.77v.06c0 4.49-3.42 7-8.29 7a14.4 14.4 0 01-9.57-3.61"/>
  <path fill="#000" d="M106.51 124.41v3.07h-2.39v-22.63h2.39v9.82a7.205 7.205 0 016.14-3.56c3.84 0 7.65 3 7.65 8.31v.06c0 5.24-3.78 8.34-7.65 8.34a7.223 7.223 0 01-6.14-3.41zm11.35-4.9v-.06c0-3.78-2.61-6.2-5.65-6.2a6 6 0 00-5.8 6.17v.06a5.997 5.997 0 005.8 6.2c3.1 0 5.65-2.29 5.65-6.17zM135.52 111.45h2.54L131.34 128c-1.37 3.32-2.92 4.52-5.34 4.52a7.266 7.266 0 01-3.41-.8l.81-1.89a5 5 0 002.51.59c1.43 0 2.32-.75 3.29-3l-7.29-16h2.63l5.83 13.36 5.15-13.33zM149.44 124l1.76-1.52c1.34 2 2.7 3.1 5 3.1 2.45 0 4.24-1.77 4.24-5.21v-14.59h2.48v14.51a7.821 7.821 0 01-2 5.7 6.66 6.66 0 01-4.78 1.8 7.425 7.425 0 01-6.7-3.79zM167.32 119.51v-.06c0-4.62 3.25-8.34 7.69-8.34 4.74 0 7.47 3.78 7.47 8.46.016.26.016.52 0 .78h-12.74a5.597 5.597 0 005.64 5.43 6.612 6.612 0 005.05-2.27l1.49 1.33a8.256 8.256 0 01-6.6 3 7.992 7.992 0 01-5.777-2.459 8 8 0 01-2.223-5.871zm12.74-.93c-.25-2.91-1.92-5.46-5.11-5.46-2.8 0-4.9 2.33-5.21 5.46h10.32zM186.91 123.23v-9.67h-2.23v-2.11h2.23v-4.84h2.39v4.84h5.08v2.11h-5.08v9.36a2.37 2.37 0 002.7 2.67 5.06 5.06 0 002.32-.56v2a6.073 6.073 0 01-2.88.68c-2.58.05-4.53-1.22-4.53-4.48zM198.3 105.78h9.24a7.998 7.998 0 015.68 1.92 4.812 4.812 0 011.39 3.47v.06a5.247 5.247 0 01-3.44 5c2.57.77 4.65 2.26 4.65 5.24v.06c0 3.72-3.13 5.92-7.88 5.92h-9.64v-21.67zm13.83 5.73c0-2.14-1.7-3.53-4.81-3.53h-6.6v7.47h6.42c2.94 0 5-1.33 5-3.88l-.01-.06zm-4.56 6.11h-6.85v7.66H208c3.28 0 5.33-1.46 5.33-3.88v-.06c.01-2.34-1.97-3.72-5.76-3.72zM220.35 111.45h2.39v4.19a6.852 6.852 0 012.56-3.274 6.851 6.851 0 013.98-1.196v2.58h-.19c-3.5 0-6.35 2.51-6.35 7.34v6.39h-2.39v-16.03zM231.19 122.83v-.06c0-3.38 2.79-5.18 6.85-5.18a17.165 17.165 0 014.93.68v-.56c0-2.88-1.77-4.37-4.78-4.37-1.689.02-3.35.423-4.86 1.18l-.72-2a13.218 13.218 0 015.83-1.34 7.003 7.003 0 015.18 1.77 6.317 6.317 0 011.64 4.68v9.8H243v-2.42a7.005 7.005 0 01-5.8 2.76c-3.01.05-6.01-1.65-6.01-4.94zm11.81-1.24V120a16.802 16.802 0 00-4.71-.68c-3 0-4.69 1.3-4.69 3.31v.07c0 2 1.86 3.19 4 3.19 2.98.04 5.4-1.76 5.4-4.3zM250.08 105.31h2.73V108h-2.73v-2.69zm.16 6.14h2.38v16h-2.38v-16zM257.78 111.45h2.39v2.79a6.066 6.066 0 015.49-3.13c3.88 0 6.14 2.6 6.14 6.42v10h-2.39v-9.36c0-3-1.61-4.84-4.43-4.84a4.709 4.709 0 00-3.5 1.447 4.722 4.722 0 00-1.31 3.553v9.18h-2.39v-16.06zM275.25 125.43l1.21-1.7a9.399 9.399 0 005.55 2c1.93 0 3.32-1 3.32-2.55v-.06c0-1.61-1.89-2.23-4-2.82-2.51-.71-5.3-1.58-5.3-4.53v-.06c0-2.76 2.29-4.59 5.46-4.59 2.048.037 4.044.65 5.76 1.77l-1.08 1.8a9.076 9.076 0 00-4.74-1.55c-1.9 0-3.11 1-3.11 2.32v.06c0 1.52 2 2.11 4.13 2.76 2.48.75 5.15 1.71 5.15 4.59v.13c0 3-2.52 4.81-5.71 4.81a10.997 10.997 0 01-6.64-2.38z"/>
</svg>
